<?xml version="1.0" encoding="utf-8"?>
<!-- Generator: Adobe Illustrator 16.0.4, SVG Export Plug-In . SVG Version: 6.00 Build 0)  -->
<!DOCTYPE svg PUBLIC "-//W3C//DTD SVG 1.1//EN" "http://www.w3.org/Graphics/SVG/1.1/DTD/svg11.dtd">
<svg version="1.1" id="Layer_1" xmlns="http://www.w3.org/2000/svg" xmlns:xlink="http://www.w3.org/1999/xlink" x="0px" y="0px"
	 width="48px" height="48px" viewBox="0 0 48 48" enable-background="new 0 0 48 48" xml:space="preserve">
<g>
	<path fill="#333333" d="M10.167,12.75c-0.69,0-1.25,0.56-1.25,1.25c0,0.689,0.56,1.25,1.25,1.25s1.25-0.561,1.25-1.25
		C11.417,13.31,10.857,12.75,10.167,12.75z M16.167,12.75c-0.689,0-1.25,0.56-1.25,1.25c0,0.689,0.561,1.25,1.25,1.25
		s1.25-0.561,1.25-1.25C17.417,13.31,16.856,12.75,16.167,12.75z M13.167,3c-5.52,0-10,4.48-10,10s4.48,10,10,10s10-4.48,10-10
		S18.687,3,13.167,3z M13.167,21c-4.41,0-8-3.59-8-8c0-0.29,0.02-0.58,0.05-0.86c2.36-1.05,4.23-2.98,5.21-5.37
		c1.81,2.56,4.79,4.23,8.16,4.23c0.78,0,1.53-0.09,2.25-0.26c0.21,0.71,0.33,1.47,0.33,2.26C21.167,17.41,17.577,21,13.167,21z"/>
	<path fill="#333333" d="M32.75,12.75c-0.688,0-1.25,0.56-1.25,1.25c0,0.689,0.562,1.25,1.25,1.25S34,14.689,34,14
		C34,13.31,33.438,12.75,32.75,12.75z M38.75,12.75c-0.689,0-1.25,0.56-1.25,1.25c0,0.689,0.561,1.25,1.25,1.25S40,14.689,40,14
		C40,13.31,39.439,12.75,38.75,12.75z M35.75,3c-5.521,0-10,4.48-10,10s4.479,10,10,10c5.52,0,10-4.48,10-10S41.27,3,35.75,3z
		 M35.75,21c-4.41,0-8-3.59-8-8c0-0.29,0.021-0.58,0.05-0.86c2.36-1.05,4.229-2.98,5.21-5.37C34.818,9.33,37.8,11,41.17,11
		c0.78,0,1.53-0.09,2.25-0.26c0.21,0.71,0.33,1.47,0.33,2.26C43.75,17.41,40.16,21,35.75,21z"/>
	<path fill="#333333" d="M13.25,25v8h8C21.25,28.58,17.67,25,13.25,25z M19.57,38.891c1.05-1.35,1.68-3.051,1.68-4.891H6.69l-0.95-2
		H2.25v2h2.22c0,0,1.89,4.07,2.12,4.42c-1.1,0.59-1.84,1.75-1.84,3.08c0,1.93,1.57,3.5,3.5,3.5c1.76,0,3.221-1.299,3.46-3h2.08
		c0.239,1.701,1.7,3,3.46,3c1.93,0,3.5-1.57,3.5-3.5C20.75,40.461,20.29,39.531,19.57,38.891z M8.25,43c-0.83,0-1.5-0.67-1.5-1.5
		S7.42,40,8.25,40s1.5,0.67,1.5,1.5S9.08,43,8.25,43z M17.25,43c-0.83,0-1.5-0.67-1.5-1.5s0.67-1.5,1.5-1.5s1.5,0.67,1.5,1.5
		S18.08,43,17.25,43z"/>
	<path fill="#333333" d="M37.75,25v8h8C45.75,28.58,42.17,25,37.75,25z M44.07,38.891c1.05-1.35,1.68-3.051,1.68-4.891H31.189
		l-0.949-2h-3.49v2h2.221c0,0,1.891,4.07,2.119,4.42c-1.1,0.59-1.84,1.75-1.84,3.08c0,1.93,1.568,3.5,3.5,3.5
		c1.76,0,3.223-1.299,3.46-3h2.08c0.239,1.701,1.7,3,3.46,3c1.93,0,3.5-1.57,3.5-3.5C45.25,40.461,44.79,39.531,44.07,38.891z
		 M32.75,43c-0.83,0-1.5-0.67-1.5-1.5s0.67-1.5,1.5-1.5s1.5,0.67,1.5,1.5S33.58,43,32.75,43z M41.75,43c-0.83,0-1.5-0.67-1.5-1.5
		s0.67-1.5,1.5-1.5s1.5,0.67,1.5,1.5S42.58,43,41.75,43z"/>
</g>
</svg>
