<?xml version="1.0" encoding="utf-8"?>
<!-- Generator: Adobe Illustrator 16.0.4, SVG Export Plug-In . SVG Version: 6.00 Build 0)  -->
<!DOCTYPE svg PUBLIC "-//W3C//DTD SVG 1.1//EN" "http://www.w3.org/Graphics/SVG/1.1/DTD/svg11.dtd">
<svg version="1.1" id="Layer_1" xmlns="http://www.w3.org/2000/svg" xmlns:xlink="http://www.w3.org/1999/xlink" x="0px" y="0px"
	 width="48px" height="48px" viewBox="0 0 48 48" enable-background="new 0 0 48 48" xml:space="preserve">
<g>
	<path fill="#333333" d="M21,12.75c-0.688,0-1.25,0.56-1.25,1.25c0,0.689,0.562,1.25,1.25,1.25s1.25-0.561,1.25-1.25
		C22.25,13.31,21.688,12.75,21,12.75z M27,12.75c-0.689,0-1.25,0.56-1.25,1.25c0,0.689,0.561,1.25,1.25,1.25s1.25-0.561,1.25-1.25
		C28.25,13.31,27.689,12.75,27,12.75z M24,3c-5.521,0-10,4.48-10,10s4.479,10,10,10c5.52,0,10-4.48,10-10S29.52,3,24,3z M24,21
		c-4.41,0-8-3.59-8-8c0-0.29,0.021-0.58,0.05-0.86c2.36-1.05,4.229-2.98,5.21-5.37C23.068,9.33,26.05,11,29.42,11
		c0.78,0,1.53-0.09,2.25-0.26C31.88,11.45,32,12.21,32,13C32,17.41,28.41,21,24,21z"/>
	<path fill="#333333" d="M26,25v8h8C34,28.58,30.42,25,26,25z M32.32,38.891C33.37,37.541,34,35.84,34,34H19.439l-0.949-2H15v2
		h2.221c0,0,1.891,4.07,2.119,4.42c-1.1,0.59-1.84,1.75-1.84,3.08c0,1.93,1.568,3.5,3.5,3.5c1.76,0,3.223-1.299,3.46-3h2.08
		c0.239,1.701,1.7,3,3.46,3c1.93,0,3.5-1.57,3.5-3.5C33.5,40.461,33.04,39.531,32.32,38.891z M21,43c-0.83,0-1.5-0.67-1.5-1.5
		S20.17,40,21,40s1.5,0.67,1.5,1.5S21.83,43,21,43z M30,43c-0.83,0-1.5-0.67-1.5-1.5S29.17,40,30,40s1.5,0.67,1.5,1.5
		S30.83,43,30,43z"/>
</g>
</svg>
