<?xml version="1.0" encoding="utf-8"?>
<!-- Generator: Adobe Illustrator 16.0.4, SVG Export Plug-In . SVG Version: 6.00 Build 0)  -->
<!DOCTYPE svg PUBLIC "-//W3C//DTD SVG 1.1//EN" "http://www.w3.org/Graphics/SVG/1.1/DTD/svg11.dtd">
<svg version="1.1" id="Layer_1" xmlns="http://www.w3.org/2000/svg" xmlns:xlink="http://www.w3.org/1999/xlink" x="0px" y="0px"
	 width="48px" height="48px" viewBox="0 0 48 48" enable-background="new 0 0 48 48" xml:space="preserve">
<path fill="#333333" d="M21,23.75c-0.69,0-1.25,0.56-1.25,1.25c0,0.689,0.56,1.25,1.25,1.25s1.25-0.561,1.25-1.25
	C22.25,24.31,21.69,23.75,21,23.75z M27,23.75c-0.689,0-1.25,0.56-1.25,1.25c0,0.689,0.561,1.25,1.25,1.25s1.25-0.561,1.25-1.25
	C28.25,24.31,27.689,23.75,27,23.75z M24,14c-5.52,0-10,4.48-10,10c0,5.52,4.48,10,10,10c5.52,0,10-4.48,10-10
	C34,18.48,29.52,14,24,14z M24,32c-4.41,0-8-3.59-8-8c0-0.29,0.02-0.58,0.05-0.86c2.36-1.05,4.23-2.98,5.21-5.37
	c1.81,2.56,4.79,4.23,8.16,4.23c0.78,0,1.53-0.09,2.25-0.26C31.88,22.45,32,23.21,32,24C32,28.41,28.41,32,24,32z"/>
</svg>
