<?xml version="1.0" encoding="utf-8"?>
<!-- Generator: Adobe Illustrator 16.0.4, SVG Export Plug-In . SVG Version: 6.00 Build 0)  -->
<!DOCTYPE svg PUBLIC "-//W3C//DTD SVG 1.1//EN" "http://www.w3.org/Graphics/SVG/1.1/DTD/svg11.dtd">
<svg version="1.1" id="Layer_1" xmlns="http://www.w3.org/2000/svg" xmlns:xlink="http://www.w3.org/1999/xlink" x="0px" y="0px"
	 width="48px" height="48px" viewBox="0 0 48 48" enable-background="new 0 0 48 48" xml:space="preserve">
<g>
	<path fill="#333333" d="M9.917,23.75c-0.69,0-1.25,0.56-1.25,1.25c0,0.689,0.56,1.25,1.25,1.25s1.25-0.561,1.25-1.25
		C11.167,24.31,10.607,23.75,9.917,23.75z M15.917,23.75c-0.689,0-1.25,0.56-1.25,1.25c0,0.689,0.561,1.25,1.25,1.25
		s1.25-0.561,1.25-1.25C17.167,24.31,16.606,23.75,15.917,23.75z M12.917,14c-5.52,0-10,4.48-10,10c0,5.52,4.48,10,10,10
		s10-4.48,10-10C22.917,18.48,18.437,14,12.917,14z M12.917,32c-4.41,0-8-3.59-8-8c0-0.29,0.02-0.58,0.05-0.86
		c2.36-1.05,4.23-2.98,5.21-5.37c1.81,2.56,4.79,4.23,8.16,4.23c0.78,0,1.53-0.09,2.25-0.26c0.21,0.71,0.33,1.47,0.33,2.26
		C20.917,28.41,17.327,32,12.917,32z"/>
	<path fill="#333333" d="M32.083,23.75c-0.688,0-1.25,0.56-1.25,1.25c0,0.689,0.562,1.25,1.25,1.25s1.25-0.561,1.25-1.25
		C33.333,24.31,32.771,23.75,32.083,23.75z M38.083,23.75c-0.688,0-1.25,0.56-1.25,1.25c0,0.689,0.562,1.25,1.25,1.25
		s1.25-0.561,1.25-1.25C39.333,24.31,38.771,23.75,38.083,23.75z M35.083,14c-5.521,0-10,4.48-10,10c0,5.52,4.479,10,10,10
		s10-4.48,10-10C45.083,18.48,40.604,14,35.083,14z M35.083,32c-4.41,0-8-3.59-8-8c0-0.29,0.021-0.58,0.05-0.86
		c2.36-1.05,4.229-2.98,5.21-5.37c1.812,2.56,4.79,4.23,8.16,4.23c0.78,0,1.53-0.09,2.25-0.26c0.21,0.71,0.33,1.47,0.33,2.26
		C43.083,28.41,39.493,32,35.083,32z"/>
</g>
</svg>
