<?xml version="1.0" encoding="utf-8"?>
<!-- Generator: Adobe Illustrator 16.0.4, SVG Export Plug-In . SVG Version: 6.00 Build 0)  -->
<!DOCTYPE svg PUBLIC "-//W3C//DTD SVG 1.1//EN" "http://www.w3.org/Graphics/SVG/1.1/DTD/svg11.dtd">
<svg version="1.1" id="Layer_1" xmlns="http://www.w3.org/2000/svg" xmlns:xlink="http://www.w3.org/1999/xlink" x="0px" y="0px"
	 width="48px" height="24px" viewBox="0 0 48 24" enable-background="new 0 0 48 24" xml:space="preserve">
<g>
	<path fill="#333333" d="M20.5,3c0.561,0,1,0.439,1,1s-0.439,1-1,1s-1-0.439-1-1S19.939,3,20.5,3 M22,8c0.551,0,1,0.449,1,1v4.5
		h-0.5h-1v1V21h-2v-6.5v-1h-1H18V9c0-0.551,0.449-1,1-1H22 M20.5,2c-1.11,0-2,0.89-2,2s0.89,2,2,2s2-0.89,2-2S21.609,2,20.5,2
		L20.5,2z M22,7h-3c-1.1,0-2,0.9-2,2v5.5h1.5V22h4v-7.5H24V9C24,7.9,23.1,7,22,7L22,7z"/>
</g>
<g>
	<path fill="#333333" d="M30.5,3c0.561,0,1,0.439,1,1s-0.439,1-1,1s-1-0.439-1-1S29.939,3,30.5,3 M32,8c0.552,0,1,0.449,1,1v4.5
		h-0.5h-1v1V21h-2v-6.5v-1h-1H28V9c0-0.551,0.448-1,1-1H32 M30.5,2c-1.109,0-2,0.89-2,2s0.891,2,2,2s2-0.89,2-2S31.609,2,30.5,2
		L30.5,2z M32,7h-3c-1.102,0-2,0.9-2,2v5.5h1.5V22h4v-7.5H34V9C34,7.9,33.1,7,32,7L32,7z"/>
</g>
<g>
	<path fill="#333333" d="M40.5,3c0.561,0,1,0.439,1,1s-0.439,1-1,1s-1-0.439-1-1S39.939,3,40.5,3 M42,8c0.552,0,1,0.449,1,1v4.5
		h-0.5h-1v1V21h-2v-6.5v-1h-1H38V9c0-0.551,0.448-1,1-1H42 M40.5,2c-1.109,0-2,0.89-2,2s0.891,2,2,2s2-0.89,2-2S41.609,2,40.5,2
		L40.5,2z M42,7h-3c-1.102,0-2,0.9-2,2v5.5h1.5V22h4v-7.5H44V9C44,7.9,43.1,7,42,7L42,7z"/>
</g>
<path fill="#333333" d="M5.5,22v-7.5H4V9c0-1.1,0.899-2,2-2h3c1.1,0,2,0.9,2,2v5.5H9.5V22H5.5z M7.5,6c1.109,0,2-0.89,2-2
	s-0.891-2-2-2c-1.11,0-2,0.89-2,2S6.389,6,7.5,6z"/>
<g>
	<g>
		<line fill="none" stroke="#333333" stroke-miterlimit="10" x1="13.917" y1="22" x2="13.917" y2="21"/>
		<line fill="none" stroke="#333333" stroke-miterlimit="10" stroke-dasharray="2,2" x1="13.917" y1="19" x2="13.917" y2="4"/>
		<line fill="none" stroke="#333333" stroke-miterlimit="10" x1="13.917" y1="3" x2="13.917" y2="2"/>
	</g>
</g>
</svg>
